<?xml version="1.0" standalone="no"?>
<!DOCTYPE svg PUBLIC "-//W3C//DTD SVG 20010904//EN"
 "http://www.w3.org/TR/2001/REC-SVG-20010904/DTD/svg10.dtd">
<svg version="1.0" xmlns="http://www.w3.org/2000/svg"
 width="360.000000pt" height="360.000000pt" viewBox="0 0 360.000000 360.000000"
 preserveAspectRatio="xMidYMid meet">
<metadata>
Created by potrace 1.14, written by Peter Selinger 2001-2017
</metadata>
<g transform="translate(0.000000,360.000000) scale(0.100000,-0.100000)"
fill="#000000" stroke="none">
<path d="M1720 3210 c-210 -38 -390 -224 -450 -464 -20 -79 -27 -229 -14 -295
6 -28 10 -31 43 -31 110 0 305 57 405 117 85 52 167 139 207 221 l34 69 34
-61 c73 -132 163 -221 272 -270 107 -48 99 -53 99 71 0 156 -32 271 -105 388
-37 59 -128 148 -188 186 -97 60 -234 88 -337 69z"/>
<path d="M1520 1895 c-19 -19 -50 -40 -69 -46 -51 -16 -168 -76 -220 -112
l-44 -30 100 -33 c153 -50 269 -115 379 -215 117 -105 129 -101 -169 -57 -144
21 -365 54 -491 73 -126 20 -231 33 -234 31 -4 -5 28 -287 35 -295 1 -2 11 3
20 12 10 8 31 19 47 23 32 8 46 -6 46 -48 0 -15 5 -30 11 -34 6 -3 8 -16 4
-28 -3 -11 -6 -53 -5 -93 l1 -72 -36 -23 c-19 -13 -38 -33 -41 -46 -7 -24 35
-392 45 -404 3 -4 200 -32 438 -62 l431 -55 439 55 c241 30 440 58 444 62 3 4
22 101 43 217 l37 210 -31 25 c-30 24 -31 29 -30 95 1 39 -2 80 -5 91 -4 12
-2 25 4 28 6 4 11 18 11 31 0 55 21 67 72 41 15 -8 29 -12 32 -8 9 16 49 273
43 279 -4 3 -96 -8 -204 -26 -109 -17 -322 -49 -473 -71 -151 -22 -286 -42
-300 -45 -20 -4 -11 8 44 61 121 117 284 210 450 258 l79 23 -46 32 c-50 34
-187 104 -227 116 -14 4 -41 23 -62 42 -20 20 -40 34 -45 32 -4 -2 -61 -44
-126 -93 l-117 -88 -112 84 c-62 46 -118 87 -124 91 -6 3 -26 -9 -44 -28z"/>
<path d="M2530 1590 c0 -5 5 -10 11 -10 5 0 7 5 4 10 -3 6 -8 10 -11 10 -2 0
-4 -4 -4 -10z"/>
</g>
</svg>
